<svg width="39" height="40" viewBox="0 0 39 40" fill="none" xmlns="http://www.w3.org/2000/svg">
<g clip-path="url(#clip0_575_377)">
<path d="M38.1928 9.18853C38.2068 9.24042 38.214 9.29392 38.2141 9.34768V17.7027C38.2141 17.8099 38.1858 17.9153 38.132 18.0081C38.0781 18.1009 38.0007 18.1778 37.9075 18.2312L30.8838 22.2686V30.271C30.8838 30.4888 30.7678 30.6898 30.5787 30.7995L15.9172 39.2261C15.8837 39.2451 15.847 39.2573 15.8104 39.2702C15.7967 39.2748 15.7837 39.2832 15.7692 39.287C15.6668 39.3139 15.559 39.3139 15.4565 39.287C15.4398 39.2824 15.4245 39.2733 15.4085 39.2672C15.3749 39.255 15.3398 39.2443 15.3078 39.2261L0.649381 30.7995C0.55626 30.7461 0.478886 30.6691 0.425058 30.5763C0.371229 30.4835 0.342847 30.3782 0.342773 30.271V5.20596C0.342773 5.15113 0.3504 5.09783 0.364129 5.04605C0.368705 5.02853 0.379383 5.01254 0.385485 4.99503C0.396926 4.96305 0.407603 4.9303 0.424383 4.90061C0.435823 4.88081 0.452603 4.86482 0.466332 4.84654C0.483874 4.82217 0.499891 4.79704 0.520484 4.77572C0.538026 4.75821 0.560907 4.74526 0.580737 4.73003C0.602856 4.71176 0.622686 4.69196 0.647856 4.67749L7.97822 0.464193C8.07102 0.410875 8.17622 0.382812 8.2833 0.382812C8.39037 0.382813 8.49557 0.410875 8.58838 0.464193L15.918 4.67749H15.9195C15.9439 4.69272 15.9645 4.71176 15.9866 4.72927C16.0065 4.7445 16.0286 4.75821 16.0461 4.77496C16.0675 4.79704 16.0827 4.82217 16.101 4.84654C16.114 4.86482 16.1315 4.88081 16.1422 4.90061C16.1598 4.93106 16.1697 4.96305 16.1819 4.99503C16.188 5.01254 16.1987 5.02853 16.2032 5.04681C16.2173 5.0987 16.2245 5.15221 16.2246 5.20596V20.8613L22.3323 17.3501V9.34692C22.3323 9.29361 22.34 9.23955 22.3537 9.18853C22.359 9.17025 22.3689 9.15426 22.375 9.13675C22.3872 9.10476 22.3979 9.07202 22.4147 9.04232C22.4261 9.02252 22.4429 9.00653 22.4559 8.98826C22.4742 8.96389 22.4894 8.93876 22.5108 8.91744C22.5283 8.89992 22.5505 8.88698 22.5703 8.87175C22.5932 8.85347 22.613 8.83368 22.6374 8.81921L29.9685 4.60591C30.0613 4.55252 30.1665 4.52441 30.2736 4.52441C30.3807 4.52441 30.4859 4.55252 30.5787 4.60591L37.9083 8.81921C37.9342 8.83444 37.9541 8.85347 37.9769 8.87099C37.996 8.88622 38.0181 8.89992 38.0357 8.91668C38.057 8.93876 38.0723 8.96389 38.0906 8.98826C38.1043 9.00653 38.1211 9.02252 38.1318 9.04232C38.1493 9.07202 38.1592 9.10476 38.1714 9.13675C38.1783 9.15426 38.1882 9.17025 38.1928 9.18853ZM36.9923 17.3501V10.4023L34.4273 11.8766L30.8838 13.9135V20.8613L36.993 17.3501H36.9923ZM29.6627 29.9184V22.9661L26.1771 24.9536L16.2238 30.6251V37.6429L29.6627 29.9184ZM1.56463 6.26062V29.9184L15.002 37.6422V30.6259L7.98203 26.6593L7.97974 26.6578L7.97669 26.6562C7.95305 26.6425 7.93322 26.6227 7.9111 26.606C7.89203 26.5907 7.86991 26.5786 7.85313 26.5618L7.85161 26.5595C7.83178 26.5405 7.81805 26.5169 7.80127 26.4956C7.78601 26.475 7.76771 26.4575 7.75551 26.4362L7.75474 26.4339C7.74101 26.411 7.73262 26.3836 7.72271 26.3577C7.71279 26.3349 7.69983 26.3136 7.69373 26.2892C7.6861 26.2603 7.68457 26.229 7.68152 26.1993C7.67847 26.1765 7.67237 26.1537 7.67237 26.1308V9.77182L4.1296 7.73409L1.56463 6.26062ZM8.28406 1.69628L2.17708 5.20596L8.28253 8.71565L14.3888 5.2052L8.28253 1.69628H8.28406ZM11.46 23.5996L15.0027 21.5634V6.26062L12.4378 7.73485L8.89422 9.77182V25.0746L11.46 23.5996ZM30.2736 5.83799L24.1674 9.34768L30.2736 12.8574L36.3791 9.34692L30.2736 5.83799ZM29.6627 13.9135L26.1192 11.8766L23.5542 10.4023V17.3501L27.0969 19.3863L29.6627 20.8613V13.9135ZM15.6121 29.5704L24.5686 24.4654L29.0457 21.9145L22.944 18.4071L15.9187 22.4452L9.51583 26.1255L15.6121 29.5704Z" fill="#FF2D20"/>
</g>
<defs>
<clipPath id="clip0_575_377">
<rect width="37.9388" height="39.1627" fill="white" transform="translate(0.342773 0.253906)"/>
</clipPath>
</defs>
</svg>
