<svg width="45" height="28" viewBox="0 0 45 28" fill="none" xmlns="http://www.w3.org/2000/svg">
<g clip-path="url(#clip0_575_364)">
<path d="M22.0388 0.40625C16.1644 0.40625 12.4928 3.38994 11.0243 9.35716C13.2272 6.37346 15.7972 5.2546 18.7344 6.00057C20.4102 6.42609 21.608 7.66121 22.9339 9.02814C25.0937 11.2552 27.5933 13.8326 33.0533 13.8326C38.9276 13.8326 42.5992 10.8489 44.0678 4.8817C41.8649 7.8654 39.2949 8.98426 36.3576 8.23829C34.6819 7.81278 33.484 6.57766 32.1582 5.21072C29.9983 2.98366 27.4987 0.40625 22.0388 0.40625ZM11.0243 13.8326C5.14992 13.8326 1.47831 16.8163 0.00976562 22.7835C2.21267 19.7998 4.78266 18.681 7.71992 19.4269C9.39567 19.8524 10.5935 21.0876 11.9194 22.4545C14.0792 24.6816 16.5788 27.259 22.0388 27.259C27.9131 27.259 31.5847 24.2753 33.0533 18.3081C30.8504 21.2918 28.2804 22.4106 25.3431 21.6647C23.6674 21.2391 22.4695 20.004 21.1437 18.6371C18.9838 16.41 16.4842 13.8326 11.0243 13.8326Z" fill="url(#paint0_linear_575_364)"/>
</g>
<defs>
<linearGradient id="paint0_linear_575_364" x1="-313.317" y1="1320.27" x2="-178.732" y2="2806.98" gradientUnits="userSpaceOnUse">
<stop stop-color="#2298BD"/>
<stop offset="1" stop-color="#0ED7B5"/>
</linearGradient>
<clipPath id="clip0_575_364">
<rect width="44.058" height="26.9243" fill="white" transform="translate(0.00976562 0.371094)"/>
</clipPath>
</defs>
</svg>
