<svg width="28" height="40" viewBox="0 0 28 40" fill="none" xmlns="http://www.w3.org/2000/svg">
<path d="M13.9834 20.1097C13.9834 16.4784 16.9292 13.5195 20.5777 13.5195C24.2113 13.5195 27.172 16.4635 27.172 20.1097C27.172 23.7411 24.2262 26.6999 20.5777 26.6999C16.9441 26.6999 13.9834 23.7411 13.9834 20.1097Z" fill="#1ABCFE"/>
<path d="M0.80957 33.2816C0.80957 29.6503 3.75532 26.6914 7.40387 26.6914H13.9982V33.2816C13.9982 36.913 11.0524 39.8718 7.40387 39.8718C3.75532 39.8718 0.80957 36.9279 0.80957 33.2816Z" fill="#67BC90"/>
<path d="M13.9834 0.354788V13.5203H20.5777C24.2113 13.5203 27.172 10.5763 27.172 6.93005C27.172 3.29871 24.2262 0.339844 20.5777 0.339844H13.9834V0.354788Z" fill="#FF7262"/>
<path d="M0.80957 6.94568C0.80957 10.577 3.75532 13.5359 7.40387 13.5359H13.9982V0.355469H7.40387C3.75532 0.355469 0.80957 3.29939 0.80957 6.94568Z" fill="#F24E1E"/>
<path d="M0.80957 20.1097C0.80957 23.7411 3.75532 26.6999 7.40387 26.6999H13.9982V13.5195H7.40387C3.75532 13.5195 0.80957 16.4784 0.80957 20.1097Z" fill="#A259FF"/>
</svg>
